# xmcd
#
# Track frame offsets: 
#        150
#        17137
#        31775
#        47800
#        60262
#        77162
#        90850
#        106550
#        121275
#        137287
#
# Disc length: 2009 seconds
#
# Revision: 2
# Processed by: cddbd v1.5.2PL0 Copyright (c) Steve Scherf et al.
# Submitted via: ExactAudioCopyFreeDBPlugin 1.0
#
DISCID=6407d70a
DTITLE=渡辺真知子 - 海につれていって
DYEAR=1977
DGENRE=ポップス
TTITLE0=海のテーマ～海につれていって
TTITLE1=かもめが翔んだ日
TTITLE2=片っぽ耳飾り
TTITLE3=愛情パズル
TTITLE4=私の展覧会
TTITLE5=迷い道
TTITLE6=なのにあいつ
TTITLE7=今は泣かせて
TTITLE8=朝のメニュー
TTITLE9=あなたの歌
EXTD=YEAR: 1977
EXTT0=
EXTT1=
EXTT2=
EXTT3=
EXTT4=
EXTT5=
EXTT6=
EXTT7=
EXTT8=
EXTT9=
PLAYORDER=
